# xmcd
#
# Track frame offsets:
#	150
#	11933
#	24658
#	34078
#	49340
#	58769
#	71101
#	85033
#	95069
#	109915
#	119909
#	131177
#	142221
#	152377
#	161535
#	173438
#	184288
#	195711
#	210705
#	221463
#	232286
#	242181
#	254455
#	265484
#	274711
#
# Disc length: 3850 seconds
#
# Revision: 1
# Processed by: cddbd v1.5.2PL0 Copyright (c) Steve Scherf et al.
# Submitted via: audiograbber 1.83.01
#
DISCID=8b0f0819
DTITLE=Jim Reeves - The Best Of Jim Reeves Disc 1
DYEAR=2014
DGENRE=Country
TTITLE0=Welcome To My World
TTITLE1=Four Walls
TTITLE2=Billy Bayou
TTITLE3=The Blizzard
TTITLE4=I'm Gonna Change Everything
TTITLE5=A Letter To My Heart
TTITLE6=I Fall To Pieces
TTITLE7=Partners
TTITLE8=The Fool's paradise
TTITLE9=Blue Boy
TTITLE10=Anna Marie
TTITLE11=There's Always Me
TTITLE12=You're The Only Good Thing
TTITLE13=Overnight
TTITLE14=Dark Moon
TTITLE15=The Letter Edged In Black
TTITLE16=I'm A Fool To Care
TTITLE17=Rodger Young
TTITLE18=It's Nothin' To Me
TTITLE19=Be Honest With Me
TTITLE20=I'm Beginning To Forget You
TTITLE21=Stand At Your Window
TTITLE22=(How Can I Write On Paper) What I Feel In My heart
TTITLE23=I'd Like To Be
TTITLE24=The Streets Of Laredo
EXTD=
EXTT0=
EXTT1=
EXTT2=
EXTT3=
EXTT4=
EXTT5=
EXTT6=
EXTT7=
EXTT8=
EXTT9=
EXTT10=
EXTT11=
EXTT12=
EXTT13=
EXTT14=
EXTT15=
EXTT16=
EXTT17=
EXTT18=
EXTT19=
EXTT20=
EXTT21=
EXTT22=
EXTT23=
EXTT24=
PLAYORDER=
